
<svg width="251px" height="180px" viewBox="0 0 251 180" version="1.1" xmlns="http://www.w3.org/2000/svg" xmlns:xlink="http://www.w3.org/1999/xlink">
    <g id="Page-1" stroke="none" stroke-width="1" fill="none" fill-rule="evenodd">
        <g id="UNT_mark" fill="#131514">
            <path d="M244.4,35.2 L221,35.2 C217.7,35.2 215.1,32.6 215.1,29.3 L215.1,5.9 C215.1,2.6 217.7,0 221,0 L244.4,0 C247.7,0 250.3,2.6 250.3,5.9 L250.3,29.3 C250.3,32.6 247.7,35.2 244.4,35.2 Z" id="Path"></path>
            <path d="M244.4,105.6 L221,105.6 C217.7,105.6 215.1,103 215.1,99.7 L215.1,76.3 C215.1,73 217.7,70.4 221,70.4 L244.4,70.4 C247.7,70.4 250.3,73 250.3,76.3 L250.3,99.7 C250.3,103 247.7,105.6 244.4,105.6 Z" id="Path"></path>
            <path d="M244.4,176 L221,176 C217.7,176 215.1,173.4 215.1,170.1 L215.1,146.7 C215.1,143.4 217.7,140.8 221,140.8 L244.4,140.8 C247.7,140.8 250.3,143.4 250.3,146.7 L250.3,170.1 C250.3,173.4 247.7,176 244.4,176 Z" id="Path"></path>
            <path d="M141.8,38.1 L141.8,137.9 L88.7,138.1 C62.4,138.1 41.1,116.7 41.1,90.5 L41.1,0.2 L41,0.2 C20,0.2 2.6,15.9 0,36.2 L0,90.4 C0,139.3 39.8,179.1 88.8,179.1 L153.5,178.9 C169.7,178.9 182.9,165.7 182.9,149.5 L182.9,0 C161.2,0.1 143.4,16.8 141.8,38.1 Z" id="Path"></path>
        </g>
    </g>
</svg>