<?xml version="1.0" standalone="no"?>
<!DOCTYPE svg PUBLIC "-//W3C//DTD SVG 1.1//EN" "http://www.w3.org/Graphics/SVG/1.1/DTD/svg11.dtd">
<svg width="840" height="820" xmlns="http://www.w3.org/2000/svg" xmlns:xlink="http://www.w3.org/1999/xlink">
  <rect x="0" y="0" width="840" height="820" fill="#eee"/>
  <g font-size="25" font-family="arial" fill="#444">
    <text x="40" y="50">
      Labels for dtr-org/unit-e
    </text>
  </g>
  <g font-size="25" font-family="arial" fill="#777">
    <text x="40" y="120">
      Status
    </text>
  </g>
  <rect x="200" y="90" width="130" height="40" fill="#666666" rx="5"/>
  <g font-size="14" font-family="arial" fill="white">
    <text x="213" y="116">
      wip
    </text>
  </g>
  <rect x="350" y="90" width="130" height="40" fill="#888888" rx="5"/>
  <g font-size="14" font-family="arial" fill="white">
    <text x="363" y="116">
      needs design
    </text>
  </g>
  <rect x="500" y="90" width="130" height="40" fill="#aaaaaa" rx="5"/>
  <g font-size="14" font-family="arial" fill="white">
    <text x="513" y="116">
      has adr
    </text>
  </g>
  <rect x="650" y="90" width="130" height="40" fill="#f7ca96" rx="5"/>
  <g font-size="14" font-family="arial" fill="black">
    <text x="663" y="116">
      backport
    </text>
  </g>
  <rect x="200" y="150" width="130" height="40" fill="#f7931a" rx="5"/>
  <g font-size="14" font-family="arial" fill="white">
    <text x="213" y="176">
      backported
    </text>
  </g>
  <g font-size="25" font-family="arial" fill="#777">
    <text x="40" y="240">
      Type
    </text>
  </g>
  <rect x="200" y="210" width="130" height="40" fill="#d73a4a" rx="5"/>
  <g font-size="14" font-family="arial" fill="white">
    <text x="213" y="236">
      bug
    </text>
  </g>
  <rect x="350" y="210" width="130" height="40" fill="#38d33d" rx="5"/>
  <g font-size="14" font-family="arial" fill="white">
    <text x="363" y="236">
      feature
    </text>
  </g>
  <rect x="500" y="210" width="130" height="40" fill="#54d958" rx="5"/>
  <g font-size="14" font-family="arial" fill="white">
    <text x="513" y="236">
      refactoring
    </text>
  </g>
  <rect x="650" y="210" width="130" height="40" fill="#6fdf73" rx="5"/>
  <g font-size="14" font-family="arial" fill="white">
    <text x="663" y="236">
      performance
    </text>
  </g>
  <rect x="200" y="270" width="130" height="40" fill="#dd5664" rx="5"/>
  <g font-size="14" font-family="arial" fill="white">
    <text x="213" y="296">
      broken test
    </text>
  </g>
  <rect x="350" y="270" width="130" height="40" fill="#e2727e" rx="5"/>
  <g font-size="14" font-family="arial" fill="white">
    <text x="363" y="296">
      floating test
    </text>
  </g>
  <g font-size="25" font-family="arial" fill="#777">
    <text x="40" y="360">
      Category
    </text>
  </g>
  <rect x="200" y="330" width="130" height="40" fill="#dceaff" rx="5"/>
  <g font-size="14" font-family="arial" fill="black">
    <text x="213" y="356">
      build
    </text>
  </g>
  <rect x="350" y="330" width="130" height="40" fill="#cbdfff" rx="5"/>
  <g font-size="14" font-family="arial" fill="black">
    <text x="363" y="356">
      ci
    </text>
  </g>
  <rect x="500" y="330" width="130" height="40" fill="#bad5ff" rx="5"/>
  <g font-size="14" font-family="arial" fill="black">
    <text x="513" y="356">
      style
    </text>
  </g>
  <rect x="650" y="330" width="130" height="40" fill="#a9cbff" rx="5"/>
  <g font-size="14" font-family="arial" fill="black">
    <text x="663" y="356">
      documentation
    </text>
  </g>
  <rect x="200" y="390" width="130" height="40" fill="#98c0ff" rx="5"/>
  <g font-size="14" font-family="arial" fill="black">
    <text x="213" y="416">
      repo
    </text>
  </g>
  <rect x="350" y="390" width="130" height="40" fill="#87b6fe" rx="5"/>
  <g font-size="14" font-family="arial" fill="white">
    <text x="363" y="416">
      security
    </text>
  </g>
  <rect x="500" y="390" width="130" height="40" fill="#77acfe" rx="5"/>
  <g font-size="14" font-family="arial" fill="white">
    <text x="513" y="416">
      technical debt
    </text>
  </g>
  <rect x="650" y="390" width="130" height="40" fill="#66a1fe" rx="5"/>
  <g font-size="14" font-family="arial" fill="white">
    <text x="663" y="416">
      tests
    </text>
  </g>
  <rect x="200" y="450" width="130" height="40" fill="#5597fe" rx="5"/>
  <g font-size="14" font-family="arial" fill="white">
    <text x="213" y="476">
      tools
    </text>
  </g>
  <rect x="350" y="450" width="130" height="40" fill="#448dfe" rx="5"/>
  <g font-size="14" font-family="arial" fill="white">
    <text x="363" y="476">
      upstream sync
    </text>
  </g>
  <rect x="500" y="450" width="130" height="40" fill="#3382fe" rx="5"/>
  <g font-size="14" font-family="arial" fill="white">
    <text x="513" y="476">
      usability
    </text>
  </g>
  <g font-size="25" font-family="arial" fill="#777">
    <text x="40" y="540">
      Component
    </text>
  </g>
  <rect x="200" y="510" width="130" height="40" fill="#ffcc00" rx="5"/>
  <g font-size="14" font-family="arial" fill="black">
    <text x="213" y="536">
      consensus
    </text>
  </g>
  <rect x="350" y="510" width="130" height="40" fill="#ffcc00" rx="5"/>
  <g font-size="14" font-family="arial" fill="black">
    <text x="363" y="536">
      economics
    </text>
  </g>
  <rect x="500" y="510" width="130" height="40" fill="#ffcc00" rx="5"/>
  <g font-size="14" font-family="arial" fill="black">
    <text x="513" y="536">
      finalization
    </text>
  </g>
  <rect x="650" y="510" width="130" height="40" fill="#ffcc00" rx="5"/>
  <g font-size="14" font-family="arial" fill="black">
    <text x="663" y="536">
      genesis
    </text>
  </g>
  <rect x="200" y="570" width="130" height="40" fill="#ffcc00" rx="5"/>
  <g font-size="14" font-family="arial" fill="black">
    <text x="213" y="596">
      permissioning
    </text>
  </g>
  <rect x="350" y="570" width="130" height="40" fill="#ffcc00" rx="5"/>
  <g font-size="14" font-family="arial" fill="black">
    <text x="363" y="596">
      p2p
    </text>
  </g>
  <rect x="500" y="570" width="130" height="40" fill="#ffcc00" rx="5"/>
  <g font-size="14" font-family="arial" fill="black">
    <text x="513" y="596">
      policy
    </text>
  </g>
  <rect x="650" y="570" width="130" height="40" fill="#ffcc00" rx="5"/>
  <g font-size="14" font-family="arial" fill="black">
    <text x="663" y="596">
      privacy
    </text>
  </g>
  <rect x="200" y="630" width="130" height="40" fill="#ffcc00" rx="5"/>
  <g font-size="14" font-family="arial" fill="black">
    <text x="213" y="656">
      proposing
    </text>
  </g>
  <rect x="350" y="630" width="130" height="40" fill="#ffcc00" rx="5"/>
  <g font-size="14" font-family="arial" fill="black">
    <text x="363" y="656">
      rpc
    </text>
  </g>
  <rect x="500" y="630" width="130" height="40" fill="#ffcc00" rx="5"/>
  <g font-size="14" font-family="arial" fill="black">
    <text x="513" y="656">
      utxo
    </text>
  </g>
  <rect x="650" y="630" width="130" height="40" fill="#ffcc00" rx="5"/>
  <g font-size="14" font-family="arial" fill="black">
    <text x="663" y="656">
      wallet
    </text>
  </g>
  <g font-size="25" font-family="arial" fill="#777">
    <text x="40" y="720">
      Platform
    </text>
  </g>
  <rect x="200" y="690" width="130" height="40" fill="#9a6af2" rx="5"/>
  <g font-size="14" font-family="arial" fill="white">
    <text x="213" y="716">
      linux
    </text>
  </g>
  <rect x="350" y="690" width="130" height="40" fill="#9a6af2" rx="5"/>
  <g font-size="14" font-family="arial" fill="white">
    <text x="363" y="716">
      windows
    </text>
  </g>
  <rect x="500" y="690" width="130" height="40" fill="#9a6af2" rx="5"/>
  <g font-size="14" font-family="arial" fill="white">
    <text x="513" y="716">
      mac
    </text>
  </g>
  <g font-size="25" font-family="arial" fill="#777">
    <text x="40" y="780">
      Welcome
    </text>
  </g>
  <rect x="200" y="750" width="130" height="40" fill="#a0f324" rx="5"/>
  <g font-size="14" font-family="arial" fill="black">
    <text x="213" y="776">
      good first issue
    </text>
  </g>
</svg>
